<svg xmlns="http://www.w3.org/2000/svg" viewBox="0 0 128 128" role="img" aria-label="SvaPro brand mark">
  <defs>
    <linearGradient id="gold" x1="0" y1="0" x2="1" y2="1">
      <stop offset="0%" stop-color="#f6ca59"/>
      <stop offset="100%" stop-color="#ad7f19"/>
    </linearGradient>
    <linearGradient id="mint" x1="0" y1="0" x2="1" y2="1">
      <stop offset="0%" stop-color="#3fe79c"/>
      <stop offset="100%" stop-color="#22c97a"/>
    </linearGradient>
  </defs>
  <rect x="8" y="8" width="112" height="112" rx="26" fill="#0e1726"/>
  <path d="M24 54h80v40a6 6 0 0 1-6 6H30a6 6 0 0 1-6-6V54z" fill="#13203a" stroke="#243450" stroke-width="2"/>
  <path d="M18 54l16-18h60l16 18H18z" fill="url(#gold)"/>
  <rect x="40" y="64" width="20" height="36" rx="3" fill="#0a1426"/>
  <rect x="68" y="66" width="26" height="14" rx="3" fill="#0a1426"/>
  <path d="M56 30c5-7 13-7 18 0 3 4 3 9 0 13-3 4-9 4-12 0-2-2-2-5 0-7 2-2 4-2 6 0" fill="none" stroke="url(#mint)" stroke-width="4" stroke-linecap="round"/>
  <circle cx="96" cy="30" r="5" fill="#22c97a"/>
</svg>
